<?xml version="1.0" encoding="UTF-8" standalone="no"?>
<svg
   xmlns:dc="http://purl.org/dc/elements/1.1/"
   xmlns:cc="http://creativecommons.org/ns#"
   xmlns:rdf="http://www.w3.org/1999/02/22-rdf-syntax-ns#"
   xmlns:svg="http://www.w3.org/2000/svg"
   xmlns="http://www.w3.org/2000/svg"
   xmlns:sodipodi="http://sodipodi.sourceforge.net/DTD/sodipodi-0.dtd"
   xmlns:inkscape="http://www.inkscape.org/namespaces/inkscape"
   height="511pt"
   viewBox="1 -39 511.99934 511"
   width="511pt"
   version="1.1"
   id="svg48"
   sodipodi:docname="browser-letter.svg"
   inkscape:version="0.92.3 (2405546, 2018-03-11)">
  <metadata
     id="metadata54">
    <rdf:RDF>
      <cc:Work
         rdf:about="">
        <dc:format>image/svg+xml</dc:format>
        <dc:type
           rdf:resource="http://purl.org/dc/dcmitype/StillImage" />
        <dc:title></dc:title>
      </cc:Work>
    </rdf:RDF>
  </metadata>
  <defs
     id="defs52" />
  <sodipodi:namedview
     pagecolor="#ffffff"
     bordercolor="#666666"
     borderopacity="1"
     objecttolerance="10"
     gridtolerance="10"
     guidetolerance="10"
     inkscape:pageopacity="0"
     inkscape:pageshadow="2"
     inkscape:window-width="1920"
     inkscape:window-height="1001"
     id="namedview50"
     showgrid="false"
     inkscape:zoom="0.34637965"
     inkscape:cx="340.66667"
     inkscape:cy="340.66667"
     inkscape:window-x="-9"
     inkscape:window-y="-9"
     inkscape:window-maximized="1"
     inkscape:current-layer="g46" />
  <path
     d="m451.253906 174.058594h-190.914062l95.457031 60.746094zm0 0"
     fill="#ffa733"
     id="path6" />
  <path
     d="m260.339844 174.058594v112.8125l78.542968-62.828125zm0 0"
     fill="#ffc477"
     id="path8" />
  <path
     d="m355.796875 234.804688-16.914063-10.761719-78.542968 62.828125c0 4.792968 3.882812 8.679687 8.675781 8.679687h173.5625c4.789063 0 8.675781-3.886719 8.675781-8.679687l-78.542968-62.828125zm0 0"
     fill="#ffb655"
     id="path10" />
  <path
     d="m372.710938 224.042969 78.542968 62.828125v-112.8125zm0 0"
     fill="#ffc477"
     id="path12" />
  <g
     id="g46"
     fill="#2d2d30">
    <path
       d="m442.578125 304.226562c9.582031 0 17.355469-7.769531 17.355469-17.355468v-112.8125c0-.234375-.113282-.433594-.132813-.667969-.019531-.582031-.089843-1.164063-.214843-1.734375-.054688-.183594-.183594-.332031-.242188-.511719-.148438-.363281-.3125-.710937-.503906-1.050781-.304688-.585938-.675782-1.132812-1.101563-1.632812-.246093-.285157-.503906-.554688-.78125-.808594-.53125-.453125-1.113281-.835938-1.738281-1.144532-.277344-.179687-.566406-.339843-.867188-.476562-.984374-.40625-2.035156-.628906-3.097656-.652344h-190.914062c-1.066406.015625-2.121094.230469-3.109375.625-.296875.136719-.585938.292969-.867188.46875-.625.3125-1.207031.703125-1.734375 1.164063-.277344.25-.519531.511719-.773437.789062-.429688.503907-.800781 1.058594-1.101563 1.648438-.1875.332031-.355468.675781-.496094 1.03125-.066406.191406-.199218.332031-.25.523437-.136718.582032-.207031 1.179688-.214843 1.777344 0 .226562-.132813.417969-.132813.652344v112.8125c0 9.585937 7.773438 17.355468 17.355469 17.355468zm-173.5625-114.355468 54.125 34.441406-54.125 44.257812zm69.546875 44.257812 12.574219 8.007813c2.84375 1.8125 6.476562 1.8125 9.320312 0l12.574219-8.007813 64.519531 52.742188h-163.507812zm104.015625 34.449219-54.136719-44.257813 54.136719-34.449218zm-21.125-85.839844-65.65625 41.773438-65.65625-41.773438zm0 0"
       id="path22" />
    <path
       d="m112.8125 165.378906h121.492188v17.355469h-121.492188zm0 0"
       id="path24" />
    <path
       d="m60.746094 165.378906h34.710937v17.355469h-34.710937zm0 0"
       id="path26" />
    <path
       d="m164.882812 226.125h69.421876v17.355469h-69.421876zm0 0"
       id="path28" />
    <path
       d="m130.167969 226.125h17.359375v17.355469h-17.359375zm0 0"
       id="path30" />
    <path
       d="m78.101562 226.125h34.710938v17.355469h-34.710938zm0 0"
       id="path32" />
    <path
       d="m8.679688 226.125h34.710937v17.355469h-34.710937zm0 0"
       id="path34" />
    <path
       d="m147.527344 286.871094h86.777344v17.355468h-86.777344zm0 0"
       id="path36" />
    <path
       d="m95.457031 286.871094h34.710938v17.355468h-34.710938zm0 0"
       id="path38" />
    <path
       d="m60.746094 286.871094h17.355468v17.355468h-17.355468zm0 0"
       id="path40" />
    <path
       d="m0 286.871094h34.710938v17.355468h-34.710938zm0 0"
       id="path42" />
    <path
       d="m26.035156 165.378906h17.355469v17.355469h-17.355469zm0 0"
       id="path44" />
  </g>
</svg>
