<svg xmlns="http://www.w3.org/2000/svg" height="544pt" version="1.1" viewBox="1 -15 544.86 544" width="544pt">
<g id="surface1">
<path d="M 472.648438 12.011719 L 72.351562 12.011719 C 42.945312 12.011719 11.574219 27.984375 11.574219 72.785156 L 11.574219 304.191406 L 533.425781 304.191406 L 533.425781 72.667969 C 533.425781 43.382812 517.449219 12.011719 472.648438 12.011719 Z M 472.648438 12.011719 " style=" stroke:none;fill-rule:nonzero;fill:rgb(100%,97.647059%,87.058824%);fill-opacity:1;" />
<path d="M 11.574219 304.1875 L 11.574219 336.371094 C 11.574219 381.167969 42.945312 397.144531 72.351562 397.144531 L 236.269531 397.144531 L 236.269531 408.722656 C 235.457031 427.359375 230.941406 462.203125 210.917969 485.585938 L 194.476562 504.6875 L 350.984375 504.6875 L 334.664062 485.585938 C 314.636719 462.433594 310.121094 427.707031 309.3125 408.722656 L 309.3125 397.144531 L 472.652344 397.144531 C 517.449219 397.144531 533.425781 365.773438 533.425781 336.371094 L 533.425781 304.1875 C 533.425781 304.1875 11.574219 304.1875 11.574219 304.1875 Z M 265.671875 349.21875 C 265.671875 345.445312 268.726562 342.390625 272.5 342.390625 C 276.273438 342.390625 279.328125 345.445312 279.328125 349.21875 C 279.328125 352.992188 276.273438 356.050781 272.5 356.050781 C 268.726562 356.0625 265.660156 353.015625 265.648438 349.242188 C 265.648438 349.046875 265.660156 348.835938 265.671875 348.640625 C 265.671875 348.640625 265.671875 349.21875 265.671875 349.21875 Z M 265.671875 349.21875 " style=" stroke:none;fill-rule:nonzero;fill:rgb(94.901961%,62.352941%,20%);fill-opacity:1;" />
<path d="M 373.675781 179.632812 L 373.675781 144.902344 L 348.554688 144.902344 C 346.390625 135.167969 342.464844 125.90625 336.980469 117.582031 L 354.804688 99.757812 L 330.382812 75.5625 L 312.554688 93.390625 C 304.277344 87.890625 295.050781 83.96875 285.347656 81.8125 L 285.347656 56.808594 L 250.621094 56.808594 L 250.621094 82.042969 C 240.921875 84.199219 231.695312 88.121094 223.417969 93.621094 L 205.589844 75.792969 L 181.046875 100.21875 L 198.875 118.046875 C 193.367188 126.355469 189.441406 135.617188 187.300781 145.363281 L 162.644531 145.363281 L 162.644531 180.09375 L 187.878906 180.09375 C 190.042969 189.828125 193.96875 199.089844 199.453125 207.410156 L 181.625 225.238281 L 206.167969 249.664062 L 223.996094 231.835938 C 232.308594 237.347656 241.566406 241.273438 251.316406 243.414062 L 251.316406 268.648438 L 286.042969 268.648438 L 286.042969 242.71875 C 295.742188 240.566406 304.96875 236.640625 313.246094 231.140625 L 330.378906 249.199219 L 354.804688 224.777344 L 337.207031 206.949219 C 342.683594 198.660156 346.609375 189.445312 348.785156 179.742188 Z M 309.890625 162.382812 C 309.890625 185.464844 291.183594 204.171875 268.101562 204.171875 C 245.019531 204.171875 226.3125 185.464844 226.3125 162.382812 C 226.3125 139.300781 245.019531 120.59375 268.101562 120.59375 C 291.183594 120.59375 309.890625 139.300781 309.890625 162.382812 Z M 309.890625 162.382812 " style=" stroke:none;fill-rule:nonzero;fill:rgb(29.803922%,68.235294%,80%);fill-opacity:1;" />
<path d="M 373.675781 133.558594 L 357.351562 133.558594 C 355.847656 128.824219 353.949219 124.214844 351.679688 119.78125 L 363.257812 108.207031 C 367.746094 103.691406 367.746094 96.398438 363.257812 91.882812 L 338.714844 67.460938 C 334.199219 62.96875 326.90625 62.96875 322.394531 67.460938 L 310.816406 79.035156 C 306.40625 76.535156 301.800781 74.40625 297.042969 72.667969 L 297.042969 56.808594 C 297.042969 50.417969 291.855469 45.234375 285.464844 45.234375 L 250.738281 45.234375 C 244.347656 45.234375 239.160156 50.417969 239.160156 56.808594 L 239.160156 72.667969 C 234.414062 74.21875 229.808594 76.152344 225.386719 78.457031 L 213.808594 66.882812 C 209.296875 62.390625 202 62.390625 197.488281 66.882812 L 172.945312 91.304688 C 168.457031 95.820312 168.457031 103.113281 172.945312 107.628906 L 184.523438 119.203125 C 182.277344 123.636719 180.378906 128.246094 178.851562 132.980469 L 162.644531 132.980469 C 156.253906 132.980469 151.066406 138.167969 151.066406 144.554688 L 151.066406 179.285156 C 151.066406 185.671875 156.253906 190.859375 162.644531 190.859375 L 178.964844 190.859375 C 180.515625 195.59375 182.460938 200.203125 184.753906 204.636719 L 173.179688 216.210938 C 168.6875 220.726562 168.6875 228.019531 173.179688 232.535156 L 197.605469 257.886719 C 202.117188 262.375 209.410156 262.375 213.925781 257.886719 L 225.5 246.308594 C 229.933594 248.566406 234.542969 250.464844 239.277344 251.980469 L 239.277344 268.304688 C 239.277344 274.691406 244.464844 279.878906 250.851562 279.878906 L 285.582031 279.878906 C 291.972656 279.878906 297.15625 274.691406 297.15625 268.304688 L 297.15625 251.632812 C 301.84375 250.222656 306.40625 248.441406 310.816406 246.308594 L 322.394531 257.886719 C 326.90625 262.375 334.199219 262.375 338.714844 257.886719 L 363.257812 233.460938 C 367.746094 228.945312 367.746094 221.652344 363.257812 217.136719 L 351.679688 205.5625 C 353.949219 201.128906 355.847656 196.519531 357.351562 191.785156 L 373.675781 191.785156 C 380.066406 191.785156 385.25 186.601562 385.25 180.210938 L 385.25 145.480469 C 385.449219 139.09375 380.410156 133.753906 374.023438 133.558594 C 373.90625 133.558594 373.789062 133.558594 373.675781 133.558594 Z M 362.097656 168.285156 L 348.554688 168.285156 C 343 168.160156 338.148438 172 336.980469 177.429688 C 335.148438 185.671875 331.863281 193.511719 327.257812 200.582031 C 324.28125 205.15625 324.917969 211.1875 328.761719 215.054688 L 338.367188 224.660156 L 330.265625 232.765625 L 320.890625 223.15625 C 317.023438 219.3125 310.992188 218.675781 306.417969 221.652344 C 299.359375 226.269531 291.511719 229.570312 283.269531 231.375 C 277.839844 232.542969 273.996094 237.394531 274.121094 242.949219 L 274.121094 256.609375 L 262.546875 256.609375 L 262.546875 242.71875 C 262.671875 237.160156 258.832031 232.3125 253.402344 231.140625 C 245.160156 229.335938 237.308594 226.035156 230.25 221.417969 C 225.675781 218.445312 219.644531 219.078125 215.78125 222.921875 L 206.171875 232.53125 L 198.066406 224.429688 L 207.675781 214.820312 C 211.519531 210.953125 212.15625 204.921875 209.179688 200.351562 C 204.574219 193.277344 201.285156 185.441406 199.457031 177.199219 C 198.289062 171.769531 193.4375 167.925781 187.882812 168.054688 L 174.222656 168.054688 L 174.222656 156.480469 L 187.882812 156.480469 C 193.4375 156.605469 198.289062 152.761719 199.457031 147.332031 C 201.261719 139.089844 204.5625 131.242188 209.179688 124.183594 C 212.15625 119.609375 211.519531 113.578125 207.675781 109.710938 L 198.066406 100.101562 L 206.171875 92 L 215.78125 101.609375 C 219.644531 105.453125 225.675781 106.089844 230.25 103.113281 C 237.3125 98.496094 245.160156 95.195312 253.402344 93.390625 C 258.832031 92.222656 262.671875 87.371094 262.546875 81.816406 L 262.546875 68.386719 L 274.121094 68.386719 L 274.121094 82.042969 C 273.996094 87.601562 277.839844 92.453125 283.269531 93.621094 C 291.511719 95.425781 299.359375 98.726562 306.417969 103.34375 C 310.992188 106.320312 317.023438 105.683594 320.890625 101.839844 L 330.496094 92.230469 L 338.601562 100.335938 L 328.992188 109.941406 C 325.148438 113.808594 324.511719 119.839844 327.488281 124.414062 C 332.082031 131.484375 335.382812 139.324219 337.210938 147.566406 C 338.378906 152.992188 343.230469 156.835938 348.785156 156.710938 L 362.445312 156.710938 Z M 362.097656 168.285156 " style=" stroke:none;fill-rule:nonzero;fill:rgb(22.745098%,19.607843%,16.862745%);fill-opacity:1;" />
<path d="M 268.21875 109.015625 C 238.746094 109.015625 214.851562 132.910156 214.851562 162.382812 C 214.851562 191.855469 238.746094 215.75 268.21875 215.75 C 297.691406 215.75 321.582031 191.855469 321.582031 162.382812 C 321.582031 132.910156 297.691406 109.015625 268.21875 109.015625 Z M 268.21875 192.480469 C 251.535156 192.480469 238.003906 178.949219 238.003906 162.265625 C 238.003906 145.585938 251.535156 132.050781 268.21875 132.050781 C 284.898438 132.050781 298.429688 145.585938 298.429688 162.265625 C 298.5 178.949219 285.015625 192.527344 268.332031 192.59375 C 268.296875 192.59375 268.25 192.59375 268.21875 192.59375 Z M 268.21875 192.480469 " style=" stroke:none;fill-rule:nonzero;fill:rgb(22.745098%,19.607843%,16.862745%);fill-opacity:1;" />
<path d="M 472.648438 0.433594 L 72.351562 0.433594 C 39.011719 0.433594 0 19.417969 0 72.785156 L 0 335.90625 C 0 389.273438 39.011719 408.257812 72.351562 408.257812 L 224.113281 408.257812 C 222.957031 430.484375 216.007812 479.683594 178.964844 492.878906 C 172.957031 495.054688 169.855469 501.699219 172.03125 507.707031 C 173.675781 512.246094 177.957031 515.277344 182.785156 515.335938 L 362.214844 515.335938 C 368.605469 515.324219 373.777344 510.140625 373.777344 503.75 C 373.777344 498.886719 370.722656 494.546875 366.148438 492.878906 C 329.105469 479.683594 322.160156 430.484375 321.003906 408.257812 L 472.648438 408.257812 C 526.015625 408.257812 545 369.246094 545 335.90625 L 545 72.667969 C 545 39.328125 526.015625 0.433594 472.648438 0.433594 Z M 325.75 492.183594 L 219.25 492.183594 C 241.707031 466.253906 246.453125 427.707031 247.265625 408.375 L 297.621094 408.375 C 298.546875 427.707031 303.292969 466.253906 325.75 492.183594 Z M 521.847656 335.90625 C 524.253906 360.726562 506.105469 382.800781 481.285156 385.210938 C 478.414062 385.488281 475.519531 385.488281 472.652344 385.222656 L 72.351562 385.222656 C 47.53125 387.570312 25.503906 369.351562 23.152344 344.53125 C 22.886719 341.707031 22.886719 338.859375 23.152344 336.023438 L 23.152344 315.765625 L 521.847656 315.765625 Z M 521.847656 292.148438 L 23.152344 292.148438 L 23.152344 72.667969 C 20.800781 47.847656 39.023438 25.820312 63.839844 23.46875 C 66.667969 23.203125 69.515625 23.203125 72.347656 23.46875 L 472.648438 23.46875 C 497.46875 21.121094 519.496094 39.339844 521.847656 64.160156 C 522.113281 66.984375 522.113281 69.832031 521.847656 72.667969 Z M 521.847656 292.148438 " style=" stroke:none;fill-rule:nonzero;fill:rgb(22.745098%,19.607843%,16.862745%);fill-opacity:1;" />
<path d="M 290.90625 348.640625 C 290.90625 358.804688 282.664062 367.046875 272.5 367.046875 C 262.335938 367.046875 254.09375 358.804688 254.09375 348.640625 C 254.09375 338.476562 262.335938 330.234375 272.5 330.234375 C 282.664062 330.234375 290.90625 338.476562 290.90625 348.640625 Z M 290.90625 348.640625 " style=" stroke:none;fill-rule:nonzero;fill:rgb(22.745098%,19.607843%,16.862745%);fill-opacity:1;" />
</g>
</svg>